<?xml version="1.0" standalone="no"?>
<!DOCTYPE svg PUBLIC "-//W3C//DTD SVG 20010904//EN"
 "http://www.w3.org/TR/2001/REC-SVG-20010904/DTD/svg10.dtd">
<svg version="1.0" xmlns="http://www.w3.org/2000/svg"
 width="512.000000pt" height="512.000000pt" viewBox="0 0 512.000000 512.000000"
 preserveAspectRatio="xMidYMid meet">

<g transform="translate(0.000000,512.000000) scale(0.100000,-0.100000)"
fill="#000000" stroke="none">
<path d="M3880 4574 c-315 -26 -525 -56 -1047 -149 -705 -124 -909 -153 -1243
-176 -348 -23 -726 10 -1022 90 l-108 29 0 -1763 0 -1763 32 -11 c283 -90 696
-133 1058 -112 352 21 542 48 1240 171 667 118 860 143 1190 159 294 14 546
-3 815 -55 145 -29 178 -25 235 22 49 42 60 73 60 175 l0 92 -45 41 c-34 32
-45 50 -45 72 0 37 22 69 61 89 l29 16 0 213 0 213 -55 55 c-44 44 -55 61 -55
87 0 46 14 67 65 97 44 26 45 27 45 79 l0 53 -147 107 c-191 139 -203 150
-203 193 0 18 5 43 11 54 7 12 76 52 175 99 l164 78 0 363 0 363 -100 95 c-85
81 -100 100 -100 126 0 45 29 76 120 129 l80 47 0 207 c0 200 -1 209 -23 242
-35 52 -79 75 -198 104 -224 53 -351 67 -659 70 -157 1 -305 1 -330 -1z m161
-378 c53 -37 74 -115 49 -181 -9 -24 -8 -25 12 -14 12 6 46 9 81 7 55 -4 63
-8 97 -45 50 -53 60 -106 31 -166 -29 -57 -60 -77 -139 -88 -101 -14 -130 -27
-193 -85 -33 -30 -61 -54 -63 -54 -21 0 -48 29 -126 135 -49 68 -90 129 -90
135 0 7 14 28 31 48 43 48 59 91 59 154 1 141 144 229 251 154z m-2362 -347
c56 -32 72 -62 87 -160 14 -96 21 -114 54 -144 35 -31 42 -52 29 -77 -18 -33
-159 -221 -177 -235 -26 -21 -41 -15 -95 36 -67 63 -86 71 -170 82 -81 10
-123 32 -154 79 -79 116 57 271 193 220 25 -10 26 -9 20 12 -18 62 -17 84 6
127 41 77 131 103 207 60z m1401 -30 c330 -40 569 -257 661 -599 19 -70 23
-111 24 -230 0 -170 -11 -215 -81 -335 -107 -182 -116 -204 -110 -270 3 -33 9
-90 12 -126 11 -118 -27 -155 -194 -188 -57 -12 -119 -28 -138 -37 -88 -42
-112 -161 -59 -287 l16 -38 -33 -33 c-40 -39 -129 -74 -293 -115 -155 -38
-264 -53 -400 -55 -91 -1 -116 2 -138 17 -32 21 -33 30 -6 110 36 106 14 194
-54 222 -25 10 -57 10 -148 2 -102 -9 -119 -8 -152 8 -51 24 -64 69 -49 164
24 143 15 181 -68 291 -102 136 -133 259 -112 449 55 498 410 888 927 1020
143 36 270 46 395 30z m901 -1755 c112 -106 160 -133 232 -134 64 0 109 -20
142 -64 69 -91 28 -203 -86 -237 -30 -9 -47 -9 -82 3 l-44 14 15 -37 c42 -109
-75 -230 -191 -198 -77 21 -117 84 -117 184 0 54 -21 85 -117 171 -96 86 -112
103 -113 120 0 21 221 274 241 274 10 0 64 -43 120 -96z m-2240 -301 c152
-104 199 -144 199 -168 0 -17 -27 -54 -86 -117 -47 -51 -92 -106 -100 -122 -9
-15 -19 -63 -23 -106 -10 -93 -31 -129 -96 -160 -63 -31 -123 -22 -170 26 -47
46 -56 106 -29 179 7 18 6 19 -10 6 -28 -23 -119 -20 -153 5 -47 35 -73 82
-73 132 0 90 62 145 178 155 81 7 129 36 218 131 39 42 75 76 81 76 6 0 35
-17 64 -37z"/>
<path d="M3040 2857 c-44 -14 -136 -103 -145 -140 -27 -107 74 -200 219 -201
94 0 152 29 209 105 55 73 27 169 -62 218 -51 28 -164 38 -221 18z"/>
<path d="M2385 2736 c-120 -38 -225 -147 -225 -234 0 -81 53 -127 150 -127
185 0 360 188 294 316 -28 55 -125 74 -219 45z"/>
<path d="M2705 2219 c-45 -39 -95 -145 -101 -212 -6 -64 17 -112 67 -139 45
-24 74 -23 136 6 75 35 108 88 108 175 0 159 -116 253 -210 170z"/>
</g>
</svg>
